<?xml version="1.0" encoding="UTF-8" standalone="no"?>
<!-- Generator: Adobe Illustrator 17.1.0, SVG Export Plug-In . SVG Version: 6.00 Build 0)  -->

<svg
   xmlns:dc="http://purl.org/dc/elements/1.1/"
   xmlns:cc="http://creativecommons.org/ns#"
   xmlns:rdf="http://www.w3.org/1999/02/22-rdf-syntax-ns#"
   xmlns:svg="http://www.w3.org/2000/svg"
   xmlns="http://www.w3.org/2000/svg"
   xmlns:sodipodi="http://sodipodi.sourceforge.net/DTD/sodipodi-0.dtd"
   xmlns:inkscape="http://www.inkscape.org/namespaces/inkscape"
   version="1.1"
   id="Capa_1"
   x="0px"
   y="0px"
   viewBox="0 0 11 11"
   xml:space="preserve"
   sodipodi:docname="chevrons.svg"
   width="11"
   height="11"
   inkscape:version="0.92.4 5da689c313, 2019-01-14"><metadata
   id="metadata51"><rdf:RDF><cc:Work
       rdf:about=""><dc:format>image/svg+xml</dc:format><dc:type
         rdf:resource="http://purl.org/dc/dcmitype/StillImage" /><dc:title></dc:title></cc:Work></rdf:RDF></metadata><defs
   id="defs49" /><sodipodi:namedview
   pagecolor="#ffffff"
   bordercolor="#666666"
   borderopacity="1"
   objecttolerance="10"
   gridtolerance="10"
   guidetolerance="10"
   inkscape:pageopacity="0"
   inkscape:pageshadow="2"
   inkscape:window-width="1366"
   inkscape:window-height="717"
   id="namedview47"
   showgrid="false"
   units="px"
   inkscape:zoom="15.724138"
   inkscape:cx="16.342881"
   inkscape:cy="14.5"
   inkscape:window-x="0"
   inkscape:window-y="26"
   inkscape:window-maximized="1"
   inkscape:current-layer="Capa_1" />
<g
   id="g14"
   transform="matrix(0.03378378,0,0,0.03378378,0.46621678,0.46621678)">
	<g
   id="g4">
		<polygon
   points="297,298 149,195.241 1,298 1,246.62 148.669,143.861 297,246.62 "
   id="polygon2" />
	</g>
	<g
   id="g8">
		<polygon
   points="297,226.068 149,123.311 1,226.068 1,174.689 148.669,71.931 297,174.689 "
   id="polygon6" />
	</g>
	<g
   id="g12">
		<polygon
   points="297,154.137 149,51.379 1,154.137 1,102.758 148.669,0 297,102.758 "
   id="polygon10" />
	</g>
</g>
<g
   id="g16"
   transform="translate(0,-287)">
</g>
<g
   id="g18"
   transform="translate(0,-287)">
</g>
<g
   id="g20"
   transform="translate(0,-287)">
</g>
<g
   id="g22"
   transform="translate(0,-287)">
</g>
<g
   id="g24"
   transform="translate(0,-287)">
</g>
<g
   id="g26"
   transform="translate(0,-287)">
</g>
<g
   id="g28"
   transform="translate(0,-287)">
</g>
<g
   id="g30"
   transform="translate(0,-287)">
</g>
<g
   id="g32"
   transform="translate(0,-287)">
</g>
<g
   id="g34"
   transform="translate(0,-287)">
</g>
<g
   id="g36"
   transform="translate(0,-287)">
</g>
<g
   id="g38"
   transform="translate(0,-287)">
</g>
<g
   id="g40"
   transform="translate(0,-287)">
</g>
<g
   id="g42"
   transform="translate(0,-287)">
</g>
<g
   id="g44"
   transform="translate(0,-287)">
</g>
</svg>