<?xml version="1.0" standalone="no"?><!-- Generator: Gravit.io --><svg xmlns="http://www.w3.org/2000/svg" xmlns:xlink="http://www.w3.org/1999/xlink" style="isolation:isolate" viewBox="7.711 6.783 100 100.652" width="100" height="100.652"><g><circle vector-effect="non-scaling-stroke" cx="0" cy="0" r="1" transform="matrix(50,0,0,50,57.711,57.435)" fill="rgb(242,191,56)"/><path d=" M 25.118 53.121 C 25.118 53.578 28.421 57.549 29.862 58.814 C 35.941 64.155 43.531 62.89 48.907 55.616 C 49.751 54.457 50.383 53.473 50.348 53.438 C 50.278 53.367 48.661 53.859 46.729 54.492 C 40.685 56.53 36.784 56.706 31.162 55.23 C 29.932 54.878 28.069 54.246 27.015 53.789 C 25.961 53.332 25.118 53.016 25.118 53.121 Z " fill="rgb(0,0,0)"/><path d=" M 89.423 53.473 C 87.982 54.281 83.098 55.686 80.392 56.073 C 77.089 56.53 73.47 56.038 68.867 54.492 C 66.934 53.859 65.317 53.367 65.247 53.438 C 65.212 53.473 65.985 54.597 67.004 55.897 C 69.077 58.568 72.416 61.098 74.735 61.731 C 76.949 62.328 80.533 62.012 82.501 61.028 C 83.414 60.571 85.031 59.446 86.085 58.463 C 87.947 56.776 90.688 53.367 90.442 53.086 C 90.372 53.016 89.915 53.192 89.423 53.473 Z " fill="rgb(0,0,0)"/><path d=" M 70.635 28.294 L 70.635 30.42 L 61.603 30.42 L 61.603 28.751 L 67.422 20.408 L 61.761 20.408 L 61.761 18.283 L 70.477 18.283 L 70.477 19.944 L 64.666 28.294 L 70.635 28.294 Z " fill="rgb(0,0,0)"/><path d=" M 87.163 20.938 L 87.163 23.942 L 74.394 23.942 L 74.394 21.583 L 82.621 9.788 L 74.617 9.788 L 74.617 6.783 L 86.94 6.783 L 86.94 9.131 L 78.725 20.938 L 87.163 20.938 Z " fill="rgb(0,0,0)"/><path d=" M 107.274 34.664 L 107.274 38.632 L 90.411 38.632 L 90.411 35.516 L 101.276 19.939 L 90.705 19.939 L 90.705 15.971 L 106.98 15.971 L 106.98 19.071 L 96.13 34.664 L 107.274 34.664 Z " fill="rgb(0,0,0)"/><radialGradient id="_rgradient_2" fx="0.5" fy="0.5" cx="0.5" cy="0.5" r="0.5" gradientTransform="matrix(7.861,0.041,0.139,5.026,-4,-2.533)" gradientUnits="userSpaceOnUse"><stop offset="2.1739130434782594%" stop-opacity="1" style="stop-color:rgb(111,56,20)"/><stop offset="100%" stop-opacity="1" style="stop-color:rgb(0,0,0)"/></radialGradient><circle vector-effect="non-scaling-stroke" cx="0" cy="0" r="1" transform="matrix(7.906,0,0,7.906,58.349,82.968)" fill="url(#_rgradient_2)"/></g></svg>