<?xml version="1.0" standalone="no"?><!-- Generator: Gravit.io --><svg xmlns="http://www.w3.org/2000/svg" xmlns:xlink="http://www.w3.org/1999/xlink" style="isolation:isolate" viewBox="377.408 7.711 100 100" width="100" height="100"><g><circle vector-effect="non-scaling-stroke" cx="0" cy="0" r="1" transform="matrix(50,0,0,50,427.408,57.711)" fill="rgb(242,191,56)"/><radialGradient id="_rgradient_3" fx="0.5" fy="0.5" cx="0.5" cy="0.5" r="0.5" gradientTransform="matrix(62.149,-0.163,1.103,-19.867,395.782,96.346)" gradientUnits="userSpaceOnUse"><stop offset="2.1739130434782594%" stop-opacity="1" style="stop-color:rgb(111,56,20)"/><stop offset="100%" stop-opacity="1" style="stop-color:rgb(0,0,0)"/></radialGradient><path d=" M 435.314 90.282 C 435.313 85.919 431.771 82.378 427.408 82.378 C 423.044 82.378 419.501 85.92 419.501 90.284 C 425.19 87.291 430.468 87.29 435.314 90.282 Z " fill="url(#_rgradient_3)"/><path d=" M 394.737 52.058 C 394.737 52.515 398.041 56.486 399.481 57.751 C 405.56 63.092 413.151 61.827 418.527 54.553 C 419.37 53.393 420.003 52.409 419.968 52.374 C 419.897 52.304 418.281 52.796 416.348 53.428 C 410.304 55.467 406.404 55.642 400.781 54.166 C 399.552 53.815 397.689 53.183 396.635 52.726 C 395.581 52.269 394.737 51.953 394.737 52.058 Z " fill="rgb(0,0,0)"/><path d=" M 459.043 52.409 C 457.602 53.218 452.718 54.623 450.012 55.01 C 446.709 55.467 443.09 54.975 438.486 53.428 C 436.554 52.796 434.937 52.304 434.867 52.374 C 434.832 52.409 435.605 53.534 436.624 54.834 C 438.697 57.505 442.035 60.035 444.355 60.667 C 446.568 61.265 450.153 60.948 452.121 59.964 C 453.034 59.508 454.651 58.383 455.705 57.399 C 457.567 55.713 460.308 52.304 460.062 52.023 C 459.992 51.953 459.535 52.128 459.043 52.409 Z " fill="rgb(0,0,0)"/><path d=" M 434.658 66.775 Q 455.676 66.69 461.127 75.758 C 466.594 84.852 450.404 93.102 444.884 83.8 Q 439.365 74.497 434.658 66.775 Z " fill="rgb(65,156,253)"/></g></svg>