<?xml version="1.0" encoding="UTF-8" standalone="no"?>
<svg
   xmlns:dc="http://purl.org/dc/elements/1.1/"
   xmlns:cc="http://creativecommons.org/ns#"
   xmlns:rdf="http://www.w3.org/1999/02/22-rdf-syntax-ns#"
   xmlns:svg="http://www.w3.org/2000/svg"
   xmlns="http://www.w3.org/2000/svg"
   xmlns:sodipodi="http://sodipodi.sourceforge.net/DTD/sodipodi-0.dtd"
   xmlns:inkscape="http://www.inkscape.org/namespaces/inkscape"
   version="1.1"
   id="Layer_1"
   x="0px"
   y="0px"
   width="25"
   height="25"
   viewBox="0 0 25 25"
   enable-background="new 0 0 64 64"
   xml:space="preserve"
   sodipodi:docname="trash-icon.svg"
   inkscape:version="0.92.2 2405546, 2018-03-11"><metadata
   id="metadata3781"><rdf:RDF><cc:Work
       rdf:about=""><dc:format>image/svg+xml</dc:format><dc:type
         rdf:resource="http://purl.org/dc/dcmitype/StillImage" /><dc:title /></cc:Work></rdf:RDF></metadata><defs
   id="defs3779" /><sodipodi:namedview
   pagecolor="#ffffff"
   bordercolor="#666666"
   borderopacity="1"
   objecttolerance="10"
   gridtolerance="10"
   guidetolerance="10"
   inkscape:pageopacity="0"
   inkscape:pageshadow="2"
   inkscape:window-width="1366"
   inkscape:window-height="721"
   id="namedview3777"
   showgrid="false"
   inkscape:zoom="21.36"
   inkscape:cx="9.2228476"
   inkscape:cy="12.5"
   inkscape:window-x="0"
   inkscape:window-y="22"
   inkscape:window-maximized="1"
   inkscape:current-layer="Layer_1" />  <path
   style="fill:#e8492f;stroke-width:0.38738087;fill-opacity:0.94117647"
   d="m 4.0665776,14.926104 0.1047342,-8.0478724 8.4255332,-0.1043999 8.425534,0.127738 v 7.9280233 c 0,10.767953 0.598069,10.061848 -8.522379,10.061848 -10.1378104,-0.08454 -7.9551949,0.45459 -8.4334224,-9.965337 z M 9.7883345,15.40061 V 9.783588 H 8.6261914 7.4640493 v 5.617022 5.617023 h 1.1621421 1.1621431 z m 3.7875995,-0.09685 0.107481,-5.520177 h -1.172779 -1.172778 v 5.358768 l -0.0504,5.91193 2.225989,0.02213 z m 3.960017,0.09685 V 9.783588 h -1.162142 -1.162144 v 5.617022 5.617023 h 1.162144 1.162142 z M 2.0407172,4.985466 c 0,-1.164489 1.9616884,-2.1747332 4.2228885,-2.1747332 1.1531449,0 1.587824,-0.1590727 1.587824,-0.5810714 0,-0.3195892 0.3486426,-0.929714 0.7747617,-1.35583291 C 9.2718267,0.22819357 9.917461,0.09906675 12.5,0.09906675 c 2.582539,0 3.228173,0.12912682 3.873809,0.77476174 0.426119,0.42611891 0.774761,1.03624371 0.774761,1.35583291 0,0.4219987 0.434679,0.5810714 1.587824,0.5810714 2.2612,0 4.222889,1.0102442 4.222889,2.1747332 V 5.9097795 H 12.5 2.0407172 Z M 15.211665,2.4233519 c 0,-0.2213607 -1.162142,-0.3873809 -2.711665,-0.3873809 -1.549524,0 -2.7116655,0.1660202 -2.7116655,0.3873809 0,0.2213607 1.1621415,0.3873809 2.7116655,0.3873809 1.549523,0 2.711665,-0.1660202 2.711665,-0.3873809 z"
   id="path3783"
   inkscape:connector-curvature="0"
   sodipodi:nodetypes="ccccsccccccccccccccccccccccccccccssssssssscccssssss" />
</svg>